<?xml version="1.0" encoding="UTF-8"?>
<svg xmlns="http://www.w3.org/2000/svg" width="300" height="54" viewBox="0 0 300 54" fill="none">
  <mask id="mask0_1345_64187" style="mask-type:luminance" maskUnits="userSpaceOnUse" x="0" y="0" width="300" height="54">
    <path d="M300 0H0V54H300V0Z" fill="white"></path>
  </mask>
  <g mask="url(#mask0_1345_64187)">
    <path d="M279.438 26.2699C281.348 25.8323 283.345 25.9664 285.18 26.6556C287.014 27.3449 288.605 28.5587 289.755 30.1459L271.897 34.1854C272.514 30.4054 275.397 27.1834 279.438 26.2699ZM289.855 41.1349C288.443 43.1791 286.311 44.6143 283.885 45.1534C279.819 46.0744 275.76 44.3884 273.525 41.2144L291.436 37.1614L294.354 36.5014L299.934 35.2399C299.9 34.0412 299.744 32.849 299.469 31.6819C297.198 22.0429 287.385 16.0339 277.551 18.2584C267.717 20.4844 261.585 30.1024 263.856 39.7399C266.125 49.3789 275.938 55.3894 285.772 53.1649C291.567 51.8524 296.074 47.9749 298.336 43.0384L289.855 41.1349ZM247.702 52.6774V27.1234H242.187V18.4174H247.702V6.43391H257.068V18.4174H264.103V27.1234H257.068V52.6774H247.702ZM229.81 52.6774H238.855V18.4174H229.81V52.6774ZM228.634 6.39791C228.634 3.22691 231.135 0.847916 234.37 0.847916C237.606 0.847916 240.033 3.22691 240.033 6.39791C240.033 9.57041 237.606 12.0199 234.37 12.0199C231.135 12.0199 228.634 9.57041 228.634 6.39791ZM226.662 18.5134C222.037 18.7534 219.31 19.4629 216.537 21.4729V18.4174H207.496V52.6774H216.535V35.8774C216.535 30.5914 217.825 27.5839 226.662 27.2884V18.5134ZM176.26 36.0859C176.485 41.0854 180.837 45.2779 186.163 45.2779C191.566 45.2779 195.993 40.8649 195.993 35.6449C195.993 30.4969 191.566 26.0854 186.163 26.0854C180.838 26.0854 176.485 30.3499 176.26 35.2774V36.0859ZM167.44 52.6774V2.07042L176.485 0.0244141V20.9674C179.28 18.7324 182.59 17.7949 186.193 17.7949C196.489 17.7949 204.726 25.7239 204.726 35.6719C204.726 45.5464 196.491 53.6194 186.193 53.6194C182.59 53.6194 179.28 52.6834 176.485 50.4484V52.6789L167.44 52.6774ZM148.188 52.6774V26.9479H142.672V18.4174H148.188V6.42492L157.554 4.30542V18.4174H164.589V26.9479H157.554V52.6774H148.188ZM131.613 52.6774V34.3729C131.613 27.7414 128.008 26.2999 124.404 26.2999C120.801 26.2999 117.198 27.6694 117.198 34.2289V52.6774H108.153V18.4174H117.198V20.9659C119.182 19.5244 121.609 17.7934 126.391 17.7934C134.038 17.7934 140.658 22.1914 140.658 32.9314V52.6774H131.613ZM85.2458 26.2699C89.2868 25.3549 93.3188 27.0124 95.5628 30.1459L77.7068 34.1854C78.3218 30.4054 81.2068 27.1834 85.2458 26.2699ZM95.6638 41.1349C94.2518 43.1791 92.1188 44.6143 89.6938 45.1534C87.7708 45.5938 85.7608 45.4547 83.9168 44.7537C82.0728 44.0526 80.4778 42.821 79.3328 41.2144L97.2458 37.1614L100.164 36.5014L105.742 35.2399C105.709 34.0412 105.553 32.849 105.277 31.6819C103.006 22.0429 93.1928 16.0339 83.3588 18.2584C73.5248 20.4844 67.3928 30.1024 69.6638 39.7399C71.9348 49.3789 81.7468 55.3894 91.5818 53.1649C97.3768 51.8524 101.884 47.9749 104.145 43.0384L95.6638 41.1349ZM48.3567 52.6774L34.3092 18.4174H44.1642L53.0638 41.6524L62.0348 18.4174H71.8898L57.8438 52.6774H48.3567ZM16.5747 26.2609C18.4852 25.8231 20.4823 25.9572 22.3171 26.6465C24.152 27.3357 25.7434 28.5496 26.8932 30.1369L9.03569 34.1779C9.65069 30.3979 12.5352 27.1759 16.5747 26.2609ZM26.9922 41.1259C25.5802 43.1706 23.4479 44.6065 21.0222 45.1459C16.9572 46.0654 12.8982 44.3809 10.6617 41.2069L28.5747 37.1539L31.4922 36.4939L37.0707 35.2309C37.0368 34.0327 36.8809 32.841 36.6057 31.6744C34.3347 22.0354 24.5232 16.0249 14.6877 18.2494C4.85369 20.4754 -1.2753 30.0949 0.992695 39.7339C3.26369 49.3729 13.0767 55.3819 22.9107 53.1574C28.7052 51.8464 33.2127 47.9674 35.4747 43.0324L26.9922 41.1259Z" fill="#161928"></path>
  </g>
</svg>
